<svg width="27" height="26" viewBox="0 0 27 26" fill="none" xmlns="http://www.w3.org/2000/svg">
<path d="M9.99994 11.5538C10.152 11.466 10.2782 11.3397 10.366 11.1876C10.4538 11.0356 10.5 10.8631 10.4999 10.6875V1.6875C10.499 1.52807 10.46 1.37116 10.3862 1.22986C10.3123 1.08857 10.2058 0.966979 10.0754 0.875238C9.94498 0.783497 9.79454 0.724263 9.6366 0.702477C9.47866 0.680692 9.3178 0.696986 9.16744 0.75C6.24866 1.78302 3.79409 3.8233 2.24496 6.50409C0.695834 9.18487 0.153762 12.3303 0.716189 15.375C0.745341 15.5324 0.811876 15.6806 0.910196 15.807C1.00852 15.9333 1.13575 16.0343 1.28119 16.1012C1.41226 16.1625 1.55525 16.1941 1.69994 16.1938C1.87546 16.1938 2.0479 16.1477 2.19994 16.06L9.99994 11.5538ZM8.49994 3.2025V10.11L2.51494 13.5637C2.49994 13.375 2.49994 13.185 2.49994 13C2.50171 10.973 3.0628 8.9857 4.12143 7.25705C5.18006 5.5284 6.69517 4.12539 8.49994 3.2025ZM24.7924 6.565C24.7812 6.5425 24.7699 6.51875 24.7562 6.49625C24.7424 6.47375 24.7312 6.455 24.7174 6.435C23.5713 4.47725 21.9329 2.85335 19.9652 1.72451C17.9974 0.595668 15.7685 0.00115752 13.4999 0C13.2347 0 12.9804 0.105357 12.7928 0.292893C12.6053 0.48043 12.4999 0.734784 12.4999 1V12.4788L2.64869 18.2162C2.53437 18.2825 2.43432 18.3708 2.35432 18.4759C2.27432 18.5811 2.21595 18.7011 2.18259 18.8289C2.14924 18.9568 2.14155 19.09 2.15997 19.2208C2.1784 19.3517 2.22257 19.4776 2.28994 19.5912C3.73528 22.0525 5.95044 23.9696 8.59359 25.0468C11.2367 26.1241 14.1609 26.3015 16.9149 25.5517C19.6689 24.8019 22.0996 23.1666 23.8319 20.8982C25.5642 18.6297 26.5018 15.8542 26.4999 13C26.5028 10.7427 25.9141 8.52396 24.7924 6.565ZM14.4999 2.045C16.0859 2.19099 17.6214 2.67945 19.0002 3.47666C20.379 4.27387 21.5684 5.36083 22.4862 6.6625L14.4999 11.3138V2.045ZM13.4999 24C11.7542 23.9955 10.0343 23.5777 8.48113 22.7808C6.9279 21.9839 5.58547 20.8305 4.56369 19.415L13.9887 13.9263L14.0162 13.9088L23.4874 8.3925C24.2605 10.0684 24.5995 11.9119 24.4731 13.7532C24.3467 15.5945 23.759 17.3745 22.7642 18.929C21.7694 20.4836 20.3995 21.7629 18.7805 22.6491C17.1615 23.5353 15.3456 23.9998 13.4999 24Z" fill="#667185"/>
</svg>
