<svg width="24" height="25" viewBox="0 0 24 25" fill="none" xmlns="http://www.w3.org/2000/svg">
<path d="M23.3538 9.97126L13.3538 0.53626C13.3489 0.531995 13.3443 0.527401 13.34 0.52251C12.9718 0.187677 12.492 0.00213623 11.9944 0.00213623C11.4967 0.00213623 11.0169 0.187677 10.6488 0.52251L10.635 0.53626L0.64625 9.97126C0.442497 10.1586 0.279855 10.3862 0.168614 10.6397C0.057374 10.8932 -4.20536e-05 11.167 2.31098e-08 11.4438V23C2.31098e-08 23.5304 0.210714 24.0392 0.585786 24.4142C0.960859 24.7893 1.46957 25 2 25H8C8.53043 25 9.03914 24.7893 9.41421 24.4142C9.78929 24.0392 10 23.5304 10 23V17H14V23C14 23.5304 14.2107 24.0392 14.5858 24.4142C14.9609 24.7893 15.4696 25 16 25H22C22.5304 25 23.0391 24.7893 23.4142 24.4142C23.7893 24.0392 24 23.5304 24 23V11.4438C24 11.167 23.9426 10.8932 23.8314 10.6397C23.7201 10.3862 23.5575 10.1586 23.3538 9.97126ZM22 23H16V17C16 16.4696 15.7893 15.9609 15.4142 15.5858C15.0391 15.2107 14.5304 15 14 15H10C9.46957 15 8.96086 15.2107 8.58579 15.5858C8.21071 15.9609 8 16.4696 8 17V23H2V11.4438L2.01375 11.4313L12 2.00001L21.9875 11.4288L22.0012 11.4413L22 23Z" fill="#667185"/>
</svg>
